<svg width="49.945" height="24.007" xmlns="http://www.w3.org/2000/svg"><title>Layer 1</title><path d="M1.137 0C.51 0 0 .428 0 1.01v1.98C0 3.55.494 4 1.138 4h47.67c.63 0 1.14-.427 1.14-1.01V1.01c0-.558-.495-1.01-1.14-1.01H1.14zm0 10.003C.51 10.003 0 10.43 0 11.013v1.98c0 .557.494 1.01 1.138 1.01h47.67c.63 0 1.14-.428 1.14-1.01v-1.98c0-.558-.495-1.01-1.14-1.01H1.14zm0 10.002c-.627 0-1.137.43-1.137 1.01v1.982c0 .557.494 1.01 1.138 1.01h47.67c.63 0 1.14-.428 1.14-1.01v-1.98c0-.56-.495-1.012-1.14-1.012H1.14z" fill="#d22856"/><path d="M1.137 0C.51 0 0 .428 0 1.01v1.98C0 3.55.494 4 1.138 4h47.67c.63 0 1.14-.427 1.14-1.01V1.01c0-.558-.495-1.01-1.14-1.01H1.14zm0 10.003C.51 10.003 0 10.43 0 11.013v1.98c0 .557.494 1.01 1.138 1.01h47.67c.63 0 1.14-.428 1.14-1.01v-1.98c0-.558-.495-1.01-1.14-1.01H1.14zm0 10.002c-.627 0-1.137.43-1.137 1.01v1.982c0 .557.494 1.01 1.138 1.01h47.67c.63 0 1.14-.428 1.14-1.01v-1.98c0-.56-.495-1.012-1.14-1.012H1.14z" fill="#d22856"/></svg>