<svg width="28" height="26" xmlns="http://www.w3.org/2000/svg"><title>Layer 1</title><path fill="#d22856" d="M26.07 0H1.93C1.415 0 1 .448 1 1s.416 1 .93 1h23.213v16H13.07c-.037 0-.07.018-.106.023-.063.008-.12.018-.18.04-.065.02-.12.052-.175.087-.032.02-.067.025-.096.05L6.57 23v-4c0-.553-.415-1-.927-1H2.857V5c0-.552-.416-1-.928-1S1 4.448 1 5v14c0 .553.416 1 .93 1h2.784v5c0 .38.2.725.514.895.13.07.274.105.415.105.197 0 .393-.066.557-.2l7.18-5.8h12.69c.515 0 .93-.447.93-1V1c0-.552-.415-1-.93-1z"/></svg>