<svg version="1" xmlns="http://www.w3.org/2000/svg" width="146.3" height="40.375" viewBox="0 0 146.3 40.375"><path d="M71.874 18.66c0-.707.58-1.287 1.256-1.287h7.18c5.087 0 8.436 2.704 8.436 7.147v.064c0 4.86-4.057 7.373-8.854 7.373h-5.474v6.825c0 .708-.58 1.288-1.288 1.288-.676 0-1.256-.58-1.256-1.288v-20.12zm8.114 10.98c3.734 0 6.182-1.996 6.182-4.958v-.064c0-3.22-2.415-4.894-6.054-4.894h-5.698v9.917h5.57zM93.603 18.5c0-.708.58-1.288 1.255-1.288.71 0 1.288.58 1.288 1.288v20.283c0 .708-.58 1.288-1.288 1.288-.676 0-1.255-.58-1.255-1.28V18.5zm9.14.032c0-.676.58-1.256 1.257-1.256h.354c.58 0 .934.29 1.288.74l13.684 17.45V18.468c0-.676.547-1.256 1.256-1.256.676 0 1.223.58 1.223 1.256v20.348c0 .676-.482 1.19-1.158 1.19h-.13c-.547 0-.933-.32-1.32-.77l-13.973-17.87v17.45c0 .676-.547 1.256-1.255 1.256-.68 0-1.23-.58-1.23-1.256V18.532zm25.43-.032c0-.708.58-1.288 1.257-1.288.708 0 1.287.58 1.287 1.288v12.33l12.847-13.167c.29-.257.58-.45.998-.45.676 0 1.224.61 1.224 1.255 0 .354-.16.644-.42.9l-7.983 7.92 8.564 10.562c.225.29.354.547.354.934 0 .676-.57 1.288-1.28 1.288-.48 0-.804-.258-1.03-.58l-8.41-10.462-4.86 4.86v4.894c0 .708-.58 1.288-1.285 1.288-.677 0-1.256-.58-1.256-1.288V18.5z" fill="#283645"/><path fill="#D22856" d="M98.498 9.875c-2.002 0-3.624-1.623-3.624-3.624 0 2.01-1.622 3.63-3.624 3.63 2.002 0 3.624 1.626 3.624 3.627 0-2 1.622-3.624 3.624-3.624z"/><g fill="#D22856"><path d="M43.094 19.312c.246 0 .488.014.73.033-.44-.728-1.228-1.22-2.137-1.22-.877 0-1.614-.57-1.884-1.355-.727.207-1.425.482-2.09.816.063.017.124.038.19.038 1.104 0 2 .896 2 2 0 .096-.015.188-.028.28 1-.38 2.084-.592 3.22-.592z"/><path d="M60.498 28.32c0-.054-.01-.105-.016-.158-.006-.05-.01-.098-.02-.146-.002-.01 0-.017-.003-.025L55.28 6.65C54.922 4.303 52.69 0 46.682 0c-.826 0-1.5.67-1.5 1.5s.674 1.5 1.5 1.5c4.86 0 5.578 3.73 5.64 4.143l4.77 19.7h-2.07c-.444-3.556-2.45-6.627-5.303-8.522-.9.38-1.53 1.27-1.53 2.31 0 .09-.02.17-.03.257 1.996 1.358 3.42 3.49 3.83 5.965.086.49.14.988.14 1.5s-.054 1.01-.136 1.5c-.715 4.27-4.42 7.53-8.895 7.53s-8.18-3.26-8.896-7.53c-.082-.49-.135-.99-.135-1.5s.052-1.01.134-1.5c.146-.88.426-1.71.807-2.484-1.032-.077-1.85-.93-1.85-1.984 0-.19-.076-.36-.192-.49-.94 1.47-1.57 3.15-1.8 4.96h-1.71c-.74-5.928-5.8-10.53-11.925-10.53S6.343 20.924 5.6 26.852H3.408l4.74-19.56.028-.146C8.197 6.974 8.802 3 13.812 3c.83 0 1.5-.67 1.5-1.5s-.67-1.5-1.5-1.5c-6.006 0-8.238 4.303-8.6 6.65L.042 27.99c0 .01 0 .017-.002.025-.012.05-.015.098-.02.146-.008.06-.017.11-.017.16L0 28.35c0 .035.008.068.01.103.004.058.007.115.017.17.01.047.023.09.036.137.014.048.026.096.044.142.018.045.042.09.064.132.03.04.05.085.07.124.03.04.06.078.09.115.03.04.06.078.095.113.03.034.067.063.1.093.04.03.077.065.118.095.04.024.083.05.124.07.04.023.08.05.127.07.05.02.1.036.153.053.034.01.066.027.103.036.007.003.014 0 .022.004.106.023.216.04.33.04h4.1c.07.57.193 1.122.342 1.665.017-.06.038-.12.038-.19 0-1.102.896-2 2-2 .208 0 .405.04.594.1-.043-.353-.077-.71-.077-1.08 0-.51.05-1.01.133-1.5.716-4.27 4.42-7.53 8.896-7.53s8.18 3.26 8.896 7.53c.082.49.135.99.135 1.5s-.052 1.014-.134 1.5c-.716 4.275-4.42 7.534-8.896 7.534-2.05 0-3.93-.69-5.45-1.84-.354.33-.83.536-1.352.536-.413 0-.75.338-.75.75 0 .265-.053.516-.146.747 2.087 1.747 4.766 2.808 7.695 2.808 6.124 0 11.185-4.603 11.926-10.53h1.71c.74 5.927 5.8 10.53 11.926 10.53s11.19-4.603 11.93-10.53H59c.114 0 .224-.015.33-.04h.024c.037-.01.07-.026.105-.038.05-.018.1-.033.15-.055.04-.02.08-.04.13-.07.04-.02.08-.04.12-.07.04-.03.08-.06.11-.095.034-.028.07-.058.1-.09.036-.036.065-.075.095-.114.03-.037.06-.074.086-.114.026-.04.046-.083.068-.125.023-.04.046-.086.064-.13.02-.048.03-.096.044-.144.012-.046.026-.09.035-.137.01-.057.015-.114.02-.17.002-.036.01-.07.01-.105.002-.006 0-.014 0-.022z"/></g><path fill="#283645" d="M50.686 16.125c-2.485 0-4.5-2.014-4.5-4.5 0 2.486-2.013 4.5-4.498 4.5 2.485 0 4.5 2.014 4.5 4.5 0-2.486 2.012-4.5 4.498-4.5zm-12.782 3.5c-1.52 0-2.75-1.23-2.75-2.75 0 1.52-1.23 2.75-2.748 2.75 1.52 0 2.75 1.23 2.75 2.75 0-1.52 1.23-2.75 2.748-2.75zm-27.17 14.447c-1.52 0-2.75-1.23-2.75-2.75 0 1.52-1.23 2.75-2.748 2.75 1.52 0 2.75 1.23 2.75 2.748 0-1.517 1.23-2.748 2.748-2.748z"/></svg>