<svg version="1" xmlns="http://www.w3.org/2000/svg" width="298.001" height="345.097" viewBox="0 0 298.001 345.097"><path d="M293.057 157.98c-5.442-20.657-15.198-39.563-28.273-55.688l8.567-8.563c6.08-6.08 6.08-15.93 0-22-3.33-3.34-7.78-4.66-12.12-4.34-3.596.253-7.146 1.595-9.866 4.332l-8.563 8.56c-9.083-7.355-19.08-13.553-29.734-18.628-9.617-4.56-19.75-8.196-30.34-10.67-.087-.016-.203-.016-.31-.038-4.586-1.066-9.203-1.986-13.96-2.614V38.9h6.88c10.735 0 19.444-8.71 19.444-19.473 0-10.725-8.71-19.43-19.448-19.43H121.5c-1.714 0-3.357.287-4.96.696 0 0-.01.03-.02.03-8.327 2.2-14.464 9.714-14.464 18.703 0 10.764 8.71 19.473 19.442 19.473h8.062v9.44C79.47 54.87 37.335 86.33 15.7 129.79c-4.32 8.66-7.893 17.746-10.454 27.24C1.846 169.484 0 182.554 0 196.09c0 64.416 40.952 119.158 98.227 139.945 15.87 5.734 32.922 9.062 50.772 9.062 7.43 0 14.73-.56 21.85-1.633.76-.096 1.48-.32 2.25-.45 20.96-3.433 40.53-11.17 57.59-22.393 23.57-15.49 42.378-37.46 54.08-63.38 8.43-18.703 13.23-39.333 13.23-61.15 0-13.17-1.727-25.936-4.946-38.11zm-66.21 115.963c-14.193 14.19-31.58 23.877-50.54 28.735-6.5 1.626-13.257 2.51-20.066 2.966-.97.06-1.88.23-2.84.24-1.472.073-2.912.3-4.392.3-4.043 0-8.06-.26-12.033-.69-24.86-2.697-47.885-13.608-65.823-31.55-20.796-20.794-32.26-48.454-32.26-77.854 0-2.33.198-4.6.334-6.898 1.66-26.815 12.766-51.82 31.924-70.97 2.383-2.37 4.875-4.594 7.42-6.735l.017-.013c19.75-16.48 44.38-25.5 70.42-25.5 4.76 0 9.44.327 14.053.93 14.462 1.87 28.247 6.57 40.743 13.758.137.083.287.184.41.28 8.15 4.744 15.798 10.446 22.646 17.28 1.61 1.622 3.067 3.335 4.55 5.032.053.054.103.12.166.184 3.025 3.446 5.73 7.14 8.292 10.887 1.63 2.442 3.263 4.894 4.693 7.43 8.846 15.45 13.85 32.853 14.387 51.07.037 1.09.15 2.148.15 3.262 0 29.4-11.444 57.06-32.24 77.853z"/></svg>