<?xml version="1.0"?>
<svg width="8.673" height="18.944" xmlns="http://www.w3.org/2000/svg" xmlns:svg="http://www.w3.org/2000/svg">
 <g>
  <title>Layer 1</title>
  <path fill="#d22856" id="svg_1" d="m6.275,4.357c0.799,0 1.599,0 2.398,0c0,-1.119 0,-2.238 0,-3.357c-0.959001,0 -1.92,0 -2.878,0c-3.139,0.181 -4.255,2.387 -3.847,6.115l-1.948,0l0,3.517l1.958,0c0,3.104 0,6.208 0,9.312c1.279,0 2.558,0 3.837,0c0,-3.104 0,-6.208 0,-9.312l2.857,0l0,-3.517l-2.866001,0c-0.021,-1.045 -0.036,-2.406 0.489,-2.757999z"/>
 </g>
</svg>