<?xml version="1.0"?>
<svg width="146.3" height="40.375" xmlns="http://www.w3.org/2000/svg" xmlns:svg="http://www.w3.org/2000/svg">
 <g>
  <title>Layer 1</title>
  <g id="svg_1">
   <path id="svg_2" d="m71.874001,18.660999c0,-0.708 0.580002,-1.288 1.255997,-1.288l7.18,0c5.087006,0 8.436005,2.704 8.436005,7.146999l0,0.064001c0,4.861 -4.056999,7.372999 -8.854004,7.372999l-5.473999,0l0,6.824999c0,0.708 -0.580002,1.288002 -1.288002,1.288002c-0.675995,0 -1.255997,-0.580002 -1.255997,-1.288002l0,-20.120998zm8.113998,10.979c3.734001,0 6.181999,-1.996 6.181999,-4.958l0,-0.064001c0,-3.219999 -2.415001,-4.893999 -6.054001,-4.893999l-5.697998,0l0,9.917l5.57,0l0,-0.000999z" fill="#d22856"/>
   <path id="svg_3" d="m93.602997,18.5c0,-0.708 0.579002,-1.288 1.254997,-1.288c0.709,0 1.288002,0.58 1.288002,1.288l0,20.283001c0,0.708 -0.579002,1.287998 -1.288002,1.287998c-0.675995,0 -1.254997,-0.579998 -1.254997,-1.287998l0,-20.283001z" fill="#d22856"/>
   <path id="svg_4" d="m102.744003,18.532c0,-0.675999 0.579002,-1.255999 1.255997,-1.255999l0.354004,0c0.580002,0 0.933998,0.289999 1.288002,0.74l13.683998,17.449999l0,-16.997999c0,-0.676001 0.546997,-1.256001 1.255997,-1.256001c0.676003,0 1.223,0.58 1.223,1.256001l0,20.348001c0,0.675999 -0.481995,1.190998 -1.157997,1.190998l-0.128998,0c-0.548004,0 -0.934006,-0.321999 -1.32,-0.771999l-13.973999,-17.868999l0,17.450001c0,0.675999 -0.547005,1.256001 -1.255005,1.256001c-0.677002,0 -1.223999,-0.580002 -1.223999,-1.256001l0,-20.284002l-0.000999,0z" fill="#d22856"/>
   <path id="svg_5" d="m128.173996,18.5c0,-0.708 0.578995,-1.288 1.255997,-1.288c0.708008,0 1.287003,0.58 1.287003,1.288l0,12.330999l12.847,-13.167999c0.289993,-0.257 0.578995,-0.451 0.998001,-0.451c0.675995,0 1.223999,0.612 1.223999,1.256001c0,0.354 -0.160995,0.643999 -0.419006,0.900999l-7.983994,7.92l8.563995,10.560999c0.225006,0.290001 0.354004,0.547001 0.354004,0.934002c0,0.675999 -0.578995,1.287998 -1.287003,1.287998c-0.483002,0 -0.806,-0.257999 -1.029999,-0.579998l-8.403,-10.463001l-4.862,4.861l0,4.894001c0,0.708 -0.578995,1.287998 -1.287003,1.287998c-0.677002,0 -1.255997,-0.579998 -1.255997,-1.287998l0,-20.284l-0.001999,0z" fill="#d22856"/>
  </g>
  <path id="svg_6" d="m98.498001,9.875c-2.001999,0 -3.624001,-1.623 -3.624001,-3.624c0,2.001 -1.622002,3.624 -3.624001,3.624c2.001999,0 3.624001,1.623 3.624001,3.624c0,-2.000999 1.622002,-3.624 3.624001,-3.624z" fill="#D22856"/>
  <g id="svg_7">
   <path id="svg_8" d="m43.094002,19.312c0.245998,0 0.487999,0.014 0.729,0.032999c-0.438,-0.727999 -1.227001,-1.220999 -2.136002,-1.220999c-0.876999,0 -1.613998,-0.568001 -1.883999,-1.354c-0.727001,0.206999 -1.424999,0.482 -2.089001,0.816c0.062,0.017 0.123001,0.038 0.189003,0.038c1.104,0 2,0.896 2,2c0,0.095999 -0.015003,0.188 -0.028,0.279999c0.999996,-0.380999 2.083996,-0.591999 3.218998,-0.591999z" fill="#d22856"/>
   <path id="svg_9" d="m60.498001,28.32c0,-0.053999 -0.008999,-0.105 -0.015999,-0.157999c-0.006001,-0.049 -0.009003,-0.098001 -0.02,-0.146c-0.001999,-0.009001 -0.000999,-0.017 -0.003002,-0.025002l-5.172001,-21.339999c-0.361,-2.348 -2.592999,-6.651 -8.598999,-6.651c-0.828999,0 -1.5,0.671 -1.5,1.5s0.671001,1.5 1.5,1.5c4.855999,0 5.575001,3.729 5.639,4.143l4.767002,19.701l-2.073002,0c-0.445,-3.556999 -2.452,-6.628 -5.304001,-8.522999c-0.897999,0.379 -1.529999,1.268999 -1.529999,2.302999c0,0.087 -0.014999,0.171 -0.026001,0.255001c1.992001,1.358 3.415001,3.489 3.830002,5.965c0.082001,0.488998 0.134998,0.987999 0.134998,1.5s-0.052998,1.011 -0.134998,1.5c-0.716,4.271999 -4.421001,7.530998 -8.896,7.530998s-8.181,-3.258999 -8.896,-7.530998c-0.082001,-0.489 -0.135002,-0.988001 -0.135002,-1.5s0.053001,-1.011002 0.135002,-1.5c0.146999,-0.879002 0.426998,-1.711 0.807999,-2.484001c-1.033001,-0.077999 -1.849998,-0.931999 -1.849998,-1.984999c0,-0.189001 -0.077,-0.358002 -0.193001,-0.490002c-0.938,1.469 -1.570002,3.151001 -1.796001,4.958l-1.708,0c-0.741999,-5.927 -5.801998,-10.531 -11.926998,-10.531s-11.187001,4.605 -11.929001,10.532l-2.197,0l4.739,-19.553l0.028,-0.148c0.023,-0.17 0.628,-4.143 5.638,-4.143c0.829,0 1.5,-0.671 1.5,-1.5s-0.671,-1.5 -1.5,-1.5c-6.006001,0 -8.238,4.303 -8.599,6.651l-5.171,21.339c-0.002,0.009001 -0.001,0.017 -0.003,0.025c-0.011,0.049 -0.014,0.098001 -0.02,0.146c-0.007,0.053001 -0.016,0.104 -0.016,0.158001c-0.001,0.008999 -0.003,0.017 -0.003,0.025c0,0.035 0.008,0.068001 0.01,0.103001c0.004,0.057999 0.007,0.115 0.017,0.171c0.009,0.046 0.023,0.091 0.036,0.136c0.014,0.048 0.026,0.096001 0.044,0.142c0.018,0.046 0.042,0.09 0.064,0.132999c0.021,0.042 0.042,0.085001 0.067,0.124001c0.026,0.040001 0.057,0.077 0.086,0.114c0.03,0.039 0.06,0.077999 0.093,0.112999c0.032,0.033001 0.067,0.062 0.102,0.092001c0.039,0.032999 0.076,0.066999 0.117,0.097c0.039,0.027 0.082,0.049999 0.123,0.073c0.042,0.024 0.083,0.051001 0.128,0.07c0.049,0.021 0.101,0.037001 0.152,0.054001c0.036,0.011999 0.068,0.028 0.105,0.036999c0.008,0.002001 0.015,0.001001 0.023,0.003c0.107,0.023001 0.217,0.039 0.331,0.039l0.001,0l4.103,0c0.071,0.570002 0.194,1.123001 0.343,1.666c0.017,-0.062 0.038,-0.121 0.038,-0.188c0,-1.104 0.896,-2 2,-2c0.208,0 0.405001,0.041 0.594,0.1c-0.042999,-0.355 -0.077,-0.713001 -0.077,-1.079c0,-0.511999 0.053,-1.011 0.135,-1.5c0.716,-4.271999 4.421,-7.531 8.896,-7.531s8.181,3.259001 8.896,7.531c0.082001,0.489 0.135,0.988001 0.135,1.5s-0.052999,1.011 -0.135,1.5c-0.716,4.272001 -4.421,7.531 -8.896,7.531c-2.048,0 -3.931,-0.688 -5.444,-1.839001c-0.356,0.330002 -0.83,0.535999 -1.354,0.535999c-0.413,0 -0.749,0.336002 -0.749,0.748001c0,0.264999 -0.054,0.515999 -0.147,0.747002c2.086,1.746998 4.764999,2.807999 7.694,2.807999c6.125,0 11.185999,-4.604 11.927,-10.531l1.708,0c0.742001,5.927 5.801998,10.531 11.926998,10.531s11.186001,-4.604 11.927002,-10.531l3.978001,0l0.001999,0c0.113998,0 0.223999,-0.016001 0.331001,-0.039c0.007999,-0.002001 0.014999,-0.000999 0.022999,-0.003c0.036999,-0.009001 0.07,-0.025 0.105,-0.037001c0.052002,-0.017 0.104,-0.032 0.152,-0.053999c0.044998,-0.02 0.085999,-0.046 0.127998,-0.07c0.042,-0.023001 0.084003,-0.046001 0.123001,-0.073c0.042,-0.029001 0.079002,-0.063002 0.117001,-0.097c0.034,-0.029001 0.07,-0.059 0.102001,-0.092001c0.034,-0.035 0.063,-0.073999 0.092999,-0.112999c0.028999,-0.037001 0.060001,-0.074001 0.085999,-0.114c0.025002,-0.039 0.045002,-0.082001 0.067001,-0.124001c0.022999,-0.042999 0.046001,-0.087 0.063999,-0.132999c0.019001,-0.046 0.031002,-0.094 0.044003,-0.142c0.013,-0.045 0.027,-0.09 0.035999,-0.136c0.009998,-0.056 0.013,-0.113001 0.016998,-0.171001c0.002003,-0.033998 0.010002,-0.066999 0.010002,-0.102999c0.001999,-0.007 0,-0.015001 0,-0.023001z" fill="#d22856"/>
  </g>
  <g id="svg_10">
   <path id="svg_11" d="m50.686001,16.125c-2.485001,0 -4.499001,-2.014 -4.499001,-4.499c0,2.485 -2.014,4.499 -4.499001,4.499c2.485001,0 4.499001,2.014 4.499001,4.499001c0,-2.485001 2.013,-4.499001 4.499001,-4.499001z" fill="#D22856"/>
  </g>
  <g id="svg_12">
   <path id="svg_13" d="m37.903999,19.625999c-1.519001,0 -2.749001,-1.23 -2.749001,-2.749001c0,1.519001 -1.23,2.749001 -2.749001,2.749001c1.519001,0 2.749001,1.23 2.749001,2.749001c0,-1.518999 1.231003,-2.749001 2.749001,-2.749001z" fill="#D22856"/>
  </g>
  <g id="svg_14">
   <path id="svg_15" d="m10.734,34.071999c-1.519,0 -2.749,-1.23 -2.749,-2.75c0,1.52 -1.23,2.75 -2.749,2.75c1.519,0 2.749,1.23 2.749,2.748001c0,-1.516998 1.23,-2.748001 2.749,-2.748001z" fill="#D22856"/>
  </g>
 </g>
</svg>