<?xml version="1.0"?>
<svg width="23.866" height="23.866" xmlns="http://www.w3.org/2000/svg" xmlns:svg="http://www.w3.org/2000/svg">
 <g>
  <title>Layer 1</title>
  <path fill="#d22856" id="svg_1" d="m15.087,11.933001l8.559999,-8.559c0.293001,-0.293 0.293001,-0.768 0,-1.061l-2.092999,-2.093c-0.141001,-0.141 -0.331001,-0.22 -0.531,-0.22s-0.390001,0.079 -0.530001,0.22l-8.559999,8.56l-8.560001,-8.56c-0.282,-0.282 -0.78,-0.282 -1.061,0l-2.092,2.093c-0.293,0.293 -0.293,0.768 0,1.061l8.56,8.559l-8.56,8.559c-0.293,0.292999 -0.293,0.768 0,1.060999l2.093,2.094c0.141,0.141001 0.331,0.220001 0.53,0.220001c0.199,0 0.39,-0.079 0.53,-0.220001l8.561,-8.559999l8.559999,8.559999c0.141001,0.141001 0.331001,0.220001 0.530001,0.220001s0.389999,-0.079 0.530001,-0.220001l2.092999,-2.094c0.293001,-0.292999 0.293001,-0.768 0,-1.060999l-8.559999,-8.559z"/>
 </g>
</svg>