<?xml version="1.0"?>
<svg width="49.945" height="24.007" xmlns="http://www.w3.org/2000/svg" xmlns:svg="http://www.w3.org/2000/svg">
 <g>
  <title>Layer 1</title>
  <g id="miu">
   <g id="editor_list_view_hambuger_menu_glyph">
    <g id="svg_1">
     <path d="m1.137,0c-0.627,0 -1.137,0.428 -1.137,1.01l0,1.981c0,0.558 0.494,1.01 1.138,1.01l47.671002,0c0.627998,0 1.138,-0.428 1.138,-1.01l0,-1.981c0,-0.558 -0.493999,-1.01 -1.138,-1.01l-47.672002,0zm0,10.003c-0.627,0 -1.137,0.427999 -1.137,1.009999l0,1.98c0,0.557 0.494,1.01 1.138,1.01l47.671002,0c0.627998,0 1.138,-0.428 1.138,-1.01l0,-1.98c0,-0.558 -0.493999,-1.009999 -1.138,-1.009999l-47.672002,0zm0,10.001999c-0.627,0 -1.137,0.429001 -1.137,1.011002l0,1.981001c0,0.556999 0.494,1.01 1.138,1.01l47.671002,0c0.627998,0 1.138,-0.428001 1.138,-1.01l0,-1.981001c0,-0.558001 -0.493999,-1.011 -1.138,-1.011l-47.672002,0l0,-0.000002z" fill="#ffffff" id="path-1"/>
    </g>
    <g id="svg_2">
     <path d="m1.137,0c-0.627,0 -1.137,0.428 -1.137,1.01l0,1.981c0,0.558 0.494,1.01 1.138,1.01l47.671002,0c0.627998,0 1.138,-0.428 1.138,-1.01l0,-1.981c0,-0.558 -0.493999,-1.01 -1.138,-1.01l-47.672002,0zm0,10.003c-0.627,0 -1.137,0.427999 -1.137,1.009999l0,1.98c0,0.557 0.494,1.01 1.138,1.01l47.671002,0c0.627998,0 1.138,-0.428 1.138,-1.01l0,-1.98c0,-0.558 -0.493999,-1.009999 -1.138,-1.009999l-47.672002,0zm0,10.001999c-0.627,0 -1.137,0.429001 -1.137,1.011002l0,1.981001c0,0.556999 0.494,1.01 1.138,1.01l47.671002,0c0.627998,0 1.138,-0.428001 1.138,-1.01l0,-1.981001c0,-0.558001 -0.493999,-1.011 -1.138,-1.011l-47.672002,0l0,-0.000002z" fill="#ffffff" id="path-1_1_"/>
    </g>
   </g>
  </g>
 </g>
</svg>