<?xml version="1.0"?>
<svg width="26.752" height="26.752" xmlns="http://www.w3.org/2000/svg" xmlns:svg="http://www.w3.org/2000/svg">
 <g>
  <title>Layer 1</title>
  <path fill="#f25b26" id="svg_1" d="m15.497,13.376l10.815001,-10.814c0.586,-0.585 0.586,-1.535 0,-2.121s-1.535,-0.586 -2.121,0l-10.815,10.814l-10.814,-10.816c-0.586,-0.586 -1.535,-0.586 -2.121,0c-0.586,0.585 -0.586,1.535 0,2.121l10.814,10.815l-10.816,10.815001c-0.586,0.585999 -0.586,1.535 0,2.121c0.293,0.292999 0.677,0.439001 1.061,0.439001s0.768,-0.146002 1.061,-0.439001l10.815001,-10.814001l10.814,10.815001c0.293001,0.292999 0.677,0.438999 1.061001,0.438999s0.768,-0.146 1.060999,-0.438999c0.586,-0.586 0.586,-1.535 0,-2.121l-10.815001,-10.815z"/>
 </g>
</svg>