<?xml version="1.0"?>
<svg width="78.673" height="63.788" xmlns="http://www.w3.org/2000/svg" xmlns:svg="http://www.w3.org/2000/svg">
 <g>
  <title>Layer 1</title>
  <g id="svg_1">
   <path fill="#efefef" id="svg_2" d="m72.353996,39.632c-2.796997,-2.401001 -6.636002,-3.604 -11.517998,-3.604l-5.670002,0c0.473,-4.080999 1.278,-7.396999 2.421001,-9.948c1.140999,-2.551001 2.854,-5.044001 5.138996,-7.476999c2.363003,-2.51 4.685001,-4.531001 6.970005,-6.063002c2.282997,-1.529999 5.273994,-3.355999 8.977997,-5.477l-4.253998,-7.062999c-2.441002,1.495 -5.473999,3.42 -9.096001,5.779c-3.623001,2.359 -7.048,5.228 -10.276001,8.607c-3.150997,3.302 -5.829998,7.056 -8.032997,11.261c-2.206001,4.204 -3.308002,8.861 -3.308002,13.970001c0,7.231998 1.456001,13.07 4.371002,17.510998c2.912998,4.440002 7.754997,6.661003 14.528999,6.661003c4.329998,0 7.737003,-1.436001 10.217999,-4.311001s3.721001,-5.966999 3.721001,-9.272999c0,-4.646004 -1.398994,-8.171001 -4.192001,-10.573002z"/>
   <path fill="#efefef" id="svg_3" d="m19.018999,18.603001c2.362,-2.51 4.684999,-4.530999 6.969999,-6.063001c2.283001,-1.53 5.274002,-3.356 8.978001,-5.477l-4.254,-7.063c-2.441,1.495 -5.475,3.42 -9.095001,5.779c-3.623999,2.359 -7.049999,5.228 -10.277999,8.607c-3.149,3.302 -5.828,7.056 -8.031999,11.261c-2.205,4.204 -3.308,8.861 -3.308,13.969002c0,7.231998 1.457,13.07 4.371,17.511002c2.912,4.439999 7.756,6.660999 14.529,6.660999c4.33,0 7.737,-1.436001 10.218002,-4.311001c2.480999,-2.875 3.721998,-5.966999 3.721998,-9.272999c0,-4.646 -1.399,-8.170002 -4.193998,-10.571999c-2.796001,-2.401001 -6.635002,-3.604 -11.517002,-3.604l-5.671,0c0.473,-4.081001 1.3,-7.416002 2.481,-10.007002c1.181,-2.589003 2.873,-5.063002 5.079999,-7.418001z"/>
  </g>
 </g>
</svg>