<?xml version="1.0"?>
<svg width="298.001" height="345.097" xmlns="http://www.w3.org/2000/svg" xmlns:svg="http://www.w3.org/2000/svg">
 <g>
  <title>Layer 1</title>
  <g id="svg_1">
   <path fill="#dedede" id="svg_2" d="m293.057007,157.979996c-5.441986,-20.656998 -15.197998,-39.562996 -28.27301,-55.687996l8.567017,-8.563004c6.074005,-6.076996 6.074005,-15.927994 0,-21.998993c-3.334015,-3.340004 -7.779999,-4.656006 -12.128998,-4.333c-3.596008,0.253998 -7.146011,1.595993 -9.866013,4.333l-8.562988,8.559998c-9.083008,-7.354004 -19.081009,-13.552002 -29.734009,-18.627003c-9.616989,-4.557999 -19.750992,-8.195 -30.337997,-10.668999c-0.089005,-0.015999 -0.205002,-0.015999 -0.311005,-0.037998c-4.58699,-1.065002 -9.203995,-1.985001 -13.96199,-2.613003l0,-7.98l0,-0.153l0,-1.306l6.878998,0c10.737,0 19.445999,-8.709 19.445999,-19.473999c0,-10.724 -8.709,-19.43 -19.445999,-19.43l-6.878998,0l-38.891006,0l-8.061996,0c-1.712997,0 -3.356003,0.288 -4.959999,0.697c0,0 -0.009003,0.029 -0.020004,0.029c-8.325996,2.202 -14.462997,9.715 -14.462997,18.704c0,10.764999 8.709,19.473999 19.442001,19.473999l8.062004,0l0,9.438999c-50.086014,6.533001 -92.219013,37.995998 -113.856015,81.448002c-4.32,8.658005 -7.893,17.744995 -10.454,27.238007c-3.4,12.455994 -5.246,25.525986 -5.246,39.059998c0,64.417007 40.952,119.158981 98.226997,139.945999c15.871002,5.734009 32.922005,9.061981 50.771996,9.061981c7.435013,0 14.736008,-0.55899 21.853012,-1.632996c0.761993,-0.095978 1.483994,-0.320984 2.250992,-0.450989c20.966003,-3.432007 40.528,-11.170013 57.596008,-22.391998c23.570999,-15.496002 42.377991,-37.463989 54.080994,-63.389008c8.424011,-18.700989 13.222015,-39.325989 13.222015,-61.143997c-0.001007,-13.167999 -1.726013,-25.934998 -4.945007,-38.108002zm-66.209,115.962997c-14.194,14.188995 -31.580994,23.876984 -50.539993,28.734985c-6.501007,1.626007 -13.258011,2.51001 -20.067001,2.966003c-0.971008,0.061005 -1.880997,0.230011 -2.845001,0.240997c-1.475998,0.072021 -2.916,0.298004 -4.395996,0.298004c-4.044006,0 -8.062012,-0.259979 -12.034012,-0.687988c-24.858994,-2.697998 -47.884995,-13.609009 -65.82299,-31.552002c-20.794003,-20.792999 -32.258003,-48.453995 -32.258003,-77.853989c0,-2.328003 0.198002,-4.598999 0.334,-6.896011c1.659,-26.814987 12.765999,-51.820999 31.924004,-70.968994c2.382996,-2.372002 4.875,-4.595001 7.420998,-6.736l0.015999,-0.013c19.75,-16.479996 44.378998,-25.5 70.420998,-25.5c4.757996,0 9.438004,0.327003 14.05101,0.929001c14.46199,1.872002 28.246994,6.571999 40.742996,13.759003c0.136002,0.083 0.285995,0.183998 0.408997,0.278999c8.149994,4.744995 15.798004,10.446999 22.645996,17.281998c1.608002,1.621002 3.067001,3.334 4.549011,5.030998c0.053986,0.054001 0.103989,0.120003 0.166992,0.184006c3.024994,3.446999 5.729004,7.141991 8.292007,10.887993c1.628998,2.442001 3.263992,4.893997 4.694,7.431c8.844986,15.449005 13.850998,32.852005 14.386002,51.070007c0.037994,1.087997 0.151978,2.147003 0.151978,3.261002c-0.001984,29.399994 -11.444992,57.060989 -32.241989,77.853989z"/>
  </g>
 </g>
</svg>